<svg xmlns="http://www.w3.org/2000/svg" viewBox="0 0 498.436 498.436"><path fill="#ff0000" d="M389.277 0H74.15v68.25H22.94v181.13H74.13v249.056h401.368V80.653L389.276 0zm-95.472 151.125v14.84H257.07v37.49h-17.73V115.47h60.354v14.883H257.07v20.773h36.735zm-69.544 9.19c0 7.247-.905 13.48-2.695 18.722-2.2 6.385-5.37 11.584-9.405 15.53-3.128 3.064-7.226 5.372-12.425 7.033-4.012 1.23-9.232 1.877-15.747 1.877h-33.392v-88.01h32.4c7.31 0 12.92.54 16.76 1.662 5.133 1.552 9.533 4.227 13.2 8.11 3.69 3.883 6.47 8.585 8.434 14.258 1.922 5.673 2.87 12.554 2.87 20.816zm-137.9 9.943v33.24H68.626v-88.03H97.08c10.784 0 17.816.453 21.052 1.337 5.004 1.337 9.297 4.185 12.64 8.542 3.45 4.465 5.134 10.18 5.134 17.127 0 5.436-.97 9.923-2.934 13.61-1.94 3.754-4.422 6.602-7.485 8.737-2.955 2.05-5.997 3.474-9.103 4.12-4.293.82-10.354 1.317-18.4 1.317H86.36zm360.015 298.928H103.27V249.38h244.613V68.25h-244.59V29.142h274.53c6.99 6.6 60.873 56.968 68.595 64.15-.043 11.844-.043 349.362-.043 375.894z"/><path fill="#ff0000" d="M199.066 135.357c-2.157-2.07-4.875-3.408-8.175-4.12-2.544-.582-7.333-.863-14.538-.863h-7.98v58.22h13.2c4.94 0 8.5-.26 10.72-.84 2.913-.713 5.286-1.986 7.162-3.668 1.94-1.726 3.45-4.53 4.68-8.456 1.187-3.97 1.813-9.362 1.813-16.135 0-6.73-.604-12.015-1.812-15.596-1.25-3.668-2.934-6.494-5.07-8.543zM114.724 134.882c-1.855-2.07-4.25-3.343-7.118-3.904-2.05-.41-6.363-.604-12.705-.604h-8.54v24.957h9.62c7.01 0 11.648-.43 14-1.38 2.372-.906 4.227-2.33 5.586-4.293 1.337-1.963 1.963-4.228 1.963-6.86.02-3.17-.843-5.8-2.806-7.915z"/></svg>
