<svg width="100" height="100" xmlns="http://www.w3.org/2000/svg"><defs><path id="a" d="M54.3 84c-1-4.1-3.6-7.6-6-10.4.1 2.9.5 7.7.1 10.1-.3 1.8-1.8 6-.6 6.9.9.7 3.6-.8 5.7-3.2.4-.5.8-1 1.3-1.5-.2-.6-.3-1.2-.5-1.9"/></defs><defs><path id="b" d="M60.6 66.6s-1.7-2.7-2.4-3.7c-6.1-.9-9.9-4.1-9.9-4.1 0 .1 5.5 8 12.3 7.8z"/></defs><path fill="none" d="M-1-1h102v102H-1z"/><g><path fill="#24292e" d="M62.408 70.74c-1.325-2.98-3.864-6.29-3.974-6.512-.22-.22-.441-.441-.772-.441-3.312-.552-5.52-.883-9.382-3.532 1.324-1.656 3.421-3.311 5.408-4.304 1.214-.663 2.539-.994 3.753-1.325 2.538-.662 5.629-1.545 4.856-4.746-.441-1.876-2.98-2.98-6.953-2.98h-1.325c-2.538.22-5.298.441-9.713 1.876-2.98.994-9.16 3.643-10.816 6.954-1.987 3.311-.773 8.167 2.649 11.81 0 0 3.2 3.31 7.505 7.946.994 1.104 1.987 2.208 2.98 3.422.11 3.09.331 6.953 0 9.05-.33 1.987-1.986 6.623-.662 7.616.993.773 3.973-.883 6.291-3.532.11-.11.331-.33.442-.552l.552 2.208c.551 3.2 2.759 5.74 5.187 5.74h.11c2.98-.111 4.967-5.52 5.63-10.486 0-.442 1.324-11.7-1.766-18.212zm-.773 17.991c-.662 5.298-2.539 8.168-3.2 8.278-.994 0-2.43-1.545-2.76-3.753v-.11L54.46 87.96c-1.325-5.63-5.188-10.375-8.94-14.238-4.305-4.636-7.616-7.947-7.616-7.947-2.65-2.76-3.642-6.512-2.318-8.83 1.104-1.987 5.74-4.636 9.492-5.74 4.194-1.324 6.622-1.655 9.161-1.765h1.214c3.09 0 4.415.772 4.525.993.11.662-.22.993-3.09 1.766-1.325.331-2.87.772-4.305 1.545-2.759 1.435-5.518 3.863-7.063 6.07-.221.442-.221.884-.11 1.215 0 0 5.628 8.498 13.575 8.498.441.773.883 1.435 1.214 2.208 2.76 5.96 1.435 16.887 1.435 16.997z" stroke="null"/><path fill="#6f42c1" fill-rule="evenodd" clip-rule="evenodd" d="M78.176 36.397c-.108-.217-.108-.434-.217-.65H44.571c-1.3 3.576-1.517 7.587-.216 11.49.108.217.108.325.216.542 5.095-1.518 10.407-1.626 10.516-1.626 4.552 0 7.805 1.409 8.13 3.685.542 3.36-2.277 4.553-4.445 5.204-1.3.433-2.71.759-4.01 1.409-.651.325-1.302.759-1.844 1.084 4.12 2.168 8.998 2.819 13.768 1.3 9.322-3.034 14.526-13.116 11.49-22.438z" stroke="null"/><path fill="#24292e" d="M79.024 31.37c-3.087-5.214-8.301-8.726-14.261-9.79-.745-.213-2.022-.852-2.235-1.597a2289.97 2289.97 0 0 0-2.98-12.664 1.873 1.873 0 0 0 .745-2.022l-.32-1.703c-.106-.532-.425-.958-.85-1.277-.533-.32-1.065-.32-1.597-.213L46.67 4.552c-.533.106-.958.425-1.278.851-.319.426-.319.958-.212 1.49l.425 1.703c.213.851.958 1.49 1.81 1.49.745 3.299 2.66 11.28 2.98 12.877.212.745-.32 1.384-.852 1.81-7.875 5.32-10.962 15.43-7.769 24.158.639-.32 1.277-.533 1.916-.745-2.874-7.876 0-17.028 7.024-21.817l.106-.107c1.277-1.17 1.81-2.448 1.49-3.831-.426-1.703-2.66-11.494-3.193-13.835l-.213-.745-.957.213-.426.106-.426-1.596 10.856-2.555.425 1.597-1.277.32.213.957c.426 2.022 2.767 12.026 3.193 13.622.532 2.022 2.98 2.874 3.725 3.087h.106a19.047 19.047 0 0 1 12.984 8.833c2.554 4.257 3.299 9.259 2.022 14.154-1.277 4.79-4.257 8.94-8.514 11.494-5.853 3.512-12.984 3.512-18.73.213a9.861 9.861 0 0 0-1.49 1.49c3.298 2.022 7.023 2.98 10.748 2.98 3.619 0 7.343-.958 10.536-2.874 4.79-2.873 8.088-7.343 9.472-12.664 1.277-5.534.426-11.068-2.341-15.857zM24.85 33.208c5.684 0 10.31 4.626 10.31 10.31s-4.626 10.31-10.31 10.31-10.31-4.627-10.31-10.31c0-5.552 4.626-10.31 10.31-10.31m0-2.908c-7.402 0-13.35 5.948-13.35 13.35S17.448 57 24.85 57 38.2 51.052 38.2 43.65 32.252 30.3 24.85 30.3z" stroke="null"/></g></svg>
