<?xml version="1.0" encoding="utf-8"?>
<!-- Generator: Adobe Illustrator 17.1.0, SVG Export Plug-In . SVG Version: 6.00 Build 0)  -->
<!DOCTYPE svg PUBLIC "-//W3C//DTD SVG 1.1//EN" "http://www.w3.org/Graphics/SVG/1.1/DTD/svg11.dtd">
<svg version="1.1" id="Layer_1" xmlns="http://www.w3.org/2000/svg" xmlns:xlink="http://www.w3.org/1999/xlink" x="0px" y="0px"
	 viewBox="0 0 24 24" enable-background="new 0 0 24 24" xml:space="preserve">
<symbol  id="ic_x5F_today" viewBox="0 -24 24 24">
	<polygon fill="none" points="24,-24 0,-24 0,0 24,0 	"/>
	<path fill="#ffffff" d="M17-11h-6v-6h6V-11z M15-15h-2v2h2V-15z M19-3h-1v2h-2v-2H8v2H6v-2H5C3.9-3,3-3.9,3-5l0-14c0-1.1,0.9-2,2-2
		h14c1.1,0,2,0.9,2,2v14C21-3.9,20.1-3,19-3z M19-19H5v11h14V-19z"/>
</symbol>
<use xlink:href="#ic_x5F_today"  width="24" height="24" id="XMLID_1_" y="-24" transform="matrix(1 0 0 -1 0 0)" overflow="visible"/>
</svg>