<?xml version="1.0" encoding="utf-8"?>
<!-- Generator: Adobe Illustrator 17.1.0, SVG Export Plug-In . SVG Version: 6.00 Build 0)  -->
<!DOCTYPE svg PUBLIC "-//W3C//DTD SVG 1.1//EN" "http://www.w3.org/Graphics/SVG/1.1/DTD/svg11.dtd">
<svg version="1.1" id="Layer_1" xmlns="http://www.w3.org/2000/svg" xmlns:xlink="http://www.w3.org/1999/xlink" x="0px" y="0px"
	 viewBox="0 0 24 24" enable-background="new 0 0 24 24" xml:space="preserve">
<symbol  id="ic_x5F_place" viewBox="0 -24 24 24">
	<g>
		<g>
			<path fill="rgba(0,0,0,0.87)" d="M12-2C8.1-2,5-5.1,5-9c0-5.2,7-13,7-13s7,7.8,7,13C19-5.1,15.9-2,12-2z M12-11.5c-1.4,0-2.5,1.1-2.5,2.5
				s1.1,2.5,2.5,2.5c1.4,0,2.5-1.1,2.5-2.5S13.4-11.5,12-11.5z"/>
		</g>
		<polygon fill="none" points="24,-24 0,-24 0,0 24,0 		"/>
	</g>
</symbol>
<use xlink:href="#ic_x5F_place"  width="24" height="24" id="XMLID_1_" y="-24" transform="matrix(1 0 0 -1 0 0)" overflow="visible"/>
</svg>