<?xml version="1.0" encoding="utf-8"?>
<!-- Generator: Adobe Illustrator 17.1.0, SVG Export Plug-In . SVG Version: 6.00 Build 0)  -->
<!DOCTYPE svg PUBLIC "-//W3C//DTD SVG 1.1//EN" "http://www.w3.org/Graphics/SVG/1.1/DTD/svg11.dtd">
<svg version="1.1" id="Layer_1" xmlns="http://www.w3.org/2000/svg" xmlns:xlink="http://www.w3.org/1999/xlink" x="0px" y="0px"
	 viewBox="0 0 24 24" enable-background="new 0 0 24 24" xml:space="preserve">
	<polygon fill="none" points="24,-24 0,-24 0,0 24,0 	"/>
	<path fill="#ffffff" d="M15 11v-6l-3-3-3 3v2h-6v14h18v-10h-6zm-8 8h-2v-2h2v2zm0-4h-2v-2h2v2zm0-4h-2v-2h2v2zm6 8h-2v-2h2v2zm0-4h-2v-2h2v2zm0-4h-2v-2h2v2zm0-4h-2v-2h2v2zm6 12h-2v-2h2v2zm0-4h-2v-2h2v2z"/>
    <path d="M0 0h24v24h-24z" fill="none"/>
<use xlink:href="#ic_x5F_today"  width="24" height="24" id="XMLID_1_" y="-24" transform="matrix(1 0 0 -1 0 0)" overflow="visible"/>
</svg>